<svg width="40" height="40" viewBox="0 0 116 33" fill="none" xmlns="http://www.w3.org/2000/svg">
<path d="M33.5528 0.328125C34.3959 0.328125 35.1776 0.50821 35.9133 0.853373C36.6491 1.19854 37.2622 1.67876 37.7527 2.26404C38.2432 2.86432 38.6111 3.53964 38.8257 4.29C39.0403 5.05536 39.0556 5.83573 38.8717 6.66112L34.5338 28.0012C34.2886 29.2768 33.6601 30.3123 32.6484 31.1077C31.6368 31.9031 30.4718 32.2932 29.1689 32.2932H5.45622C4.58251 32.2932 3.78545 32.1132 3.0497 31.768C2.31394 31.4228 1.71614 30.9426 1.22564 30.3573C0.750466 29.757 0.397918 29.0817 0.167995 28.3014C-0.0465997 27.521 -0.0772561 26.7256 0.0760258 25.9002L4.47522 4.62015C4.72047 3.34455 5.34892 2.30906 6.34526 1.51369C7.34159 0.71831 8.4912 0.328125 9.7941 0.328125H33.5375H33.5528ZM7.84742 7.77165L13.3043 9.3774L10.4072 23.5891C10.3459 23.9193 10.4072 24.2194 10.6372 24.4745C10.8517 24.7297 11.1277 24.8647 11.4802 24.8647H31.1309L25.7201 23.259L28.6171 9.04725C28.6784 8.71709 28.6018 8.41695 28.3872 8.16183C28.1726 7.90671 27.8814 7.77165 27.5441 7.77165H7.84742Z" fill="white"/>
<path d="M51.2881 23.5735C51.2268 23.9037 51.2881 24.2038 51.518 24.4589C51.7326 24.714 52.0085 24.8491 52.3611 24.8491H60.531C61.0981 24.8491 61.4507 24.564 61.604 23.9787L64.593 9.36178L70.0038 7.75602H55.534L57.0668 0.3125H76.1964L70.5556 28.0006C70.3104 29.2762 69.6819 30.3117 68.6856 31.1071C67.6893 31.9024 66.5396 32.2926 65.2367 32.2926H46.3371C45.4634 32.2926 44.6663 32.1125 43.9306 31.7674C43.1948 31.4222 42.597 30.942 42.1065 30.3567C41.6313 29.7564 41.2788 29.0811 41.0489 28.3007C40.8343 27.5204 40.8036 26.725 40.9569 25.8996L42.1678 20.0468H51.9625L51.2574 23.5585L51.2881 23.5735Z" fill="white"/>
<path d="M78.2504 25.2693L78.7563 22.7031H88.551L88.367 23.5735C88.3057 23.9037 88.367 24.2038 88.597 24.4589C88.8116 24.714 89.0875 24.8491 89.44 24.8491H107.819L102.362 23.2433L102.868 20.7822C102.929 20.452 102.852 20.1519 102.638 19.8968C102.423 19.6416 102.132 19.5066 101.795 19.5066H86.6809C85.7459 19.5066 84.8722 19.3115 84.0751 18.9063C83.2781 18.5011 82.6036 17.9909 82.0671 17.3456C81.5307 16.7003 81.1628 15.9649 80.9175 15.1095C80.6876 14.2541 80.657 13.3687 80.8409 12.4532L82.3277 5.00972C82.6036 3.64408 83.2934 2.51854 84.397 1.63312C85.5007 0.747706 86.7729 0.3125 88.1984 0.3125H109.75C110.685 0.3125 111.559 0.507592 112.356 0.912784C113.168 1.30297 113.827 1.82822 114.364 2.47352C114.885 3.11883 115.283 3.85418 115.529 4.69457C115.774 5.53497 115.805 6.40538 115.621 7.32082L115.053 9.91704H105.259L105.443 9.04663C105.504 8.71648 105.427 8.41633 105.213 8.16121C104.998 7.90609 104.707 7.77103 104.37 7.77103H85.7919L91.2027 9.37679L90.8349 11.2977C90.7736 11.6279 90.8349 11.928 91.0648 12.1831C91.2794 12.4382 91.5553 12.5733 91.9078 12.5733H106.562L107.451 12.6183C108.355 12.6783 109.167 12.9185 109.903 13.3237C110.639 13.7288 111.252 14.2541 111.743 14.8994C112.233 15.5447 112.601 16.265 112.815 17.0754C113.03 17.8858 113.045 18.7262 112.861 19.6116L111.237 27.6104C110.961 28.9761 110.271 30.1016 109.167 30.987C108.064 31.8724 106.792 32.3076 105.366 32.3076H84.0445C83.1095 32.3076 82.2358 32.1125 81.4387 31.7074C80.6416 31.3022 79.9672 30.7919 79.4307 30.1466C78.8942 29.5013 78.5263 28.766 78.2811 27.9106C78.0512 27.0551 78.0205 26.1697 78.2044 25.2693H78.2504Z" fill="white"/>
</svg>
